<svg xmlns="http://www.w3.org/2000/svg" width="1225" height="689" viewBox="0 0 1225 689">
	<path fill="#1E1C2A" transform="scale(0.673077 0.672852)" d="M324.689 448.045C326.191 447.978 327.598 448.03 329.065 448.366C332.559 449.166 336.903 450.537 338.721 453.891C339.821 455.92 339.697 458.231 339.112 460.394C338.477 462.741 337.062 465.045 335.525 466.908C332.791 470.223 315.058 487.544 312.299 489.059C309.727 489.027 307.478 488.695 305.055 487.836C301.763 486.669 298.015 484.997 296.573 481.584C295.439 478.9 296.008 475.873 296.966 473.23C300.727 462.843 314.944 452.619 324.689 448.045Z"/>
	<path fill="#1565C0" transform="scale(0.673077 0.672852)" d="M326.484 453.167C327.772 453.463 329.137 453.828 330.363 454.329C332.718 455.291 333.551 456.885 334.4 459.092C334.329 459.539 334.276 460.834 334.07 461.161C332.429 463.771 327.582 466.192 325.217 468.363C319.764 473.37 315.53 479.621 310.019 484.416C306.494 483.606 304.209 482.399 302.056 479.437C301.702 477.406 301.424 476.497 302.121 474.5C304.975 466.328 318.903 456.843 326.484 453.167Z"/>
	<path fill="#1E1C2A" transform="scale(0.673077 0.672852)" d="M339.887 376.099C341.633 375.9 343.5 375.688 345.259 375.811C348.452 376.036 352.393 378.305 354.382 380.819C356.221 383.143 357.044 385.855 356.617 388.812C356.156 392.015 354.719 394.991 351.991 396.847C347.598 399.835 340.007 400.629 334.878 402.446Q329.991 404.128 325.244 406.172Q320.497 408.216 315.917 410.611Q311.337 413.006 306.95 415.739Q302.563 418.472 298.394 421.527C283.015 432.774 270.803 446.487 261.042 462.875C255.53 472.129 252.476 485.871 243.818 492.345C240.589 493.19 237.412 493.415 234.295 492.011C231.256 490.643 228.551 487.692 227.548 484.496C224.834 475.853 232.066 464.369 236.252 457.104C259.454 416.845 294.958 388.099 339.887 376.099Z"/>
	<path fill="#1565C0" transform="scale(0.673077 0.672852)" d="M342.265 381.495C344.453 381.301 346.456 381.109 348.317 382.492C350.107 383.823 350.77 385.262 351.122 387.406C350.66 390.172 349.394 391.771 346.983 393.222C341.77 396.358 333.974 397.051 328.099 398.885C317.483 402.199 305.866 409.031 296.943 415.642C279.856 428.302 264.454 444.161 254.494 463.108C250.647 470.428 247.749 482.419 241.624 487.921C240.424 487.914 238.955 487.959 237.782 487.634C235.33 486.954 233.945 485.645 232.644 483.533C230.848 474.934 240.214 460.902 244.638 453.756C266.648 418.201 301.306 391.033 342.265 381.495Z"/>
	<path fill="#1E1C2A" transform="scale(0.673077 0.672852)" d="M359.591 293.54C361.073 293.441 362.608 293.452 364.084 293.626C367.139 293.985 370.474 295.938 372.226 298.443C373.754 300.628 374.157 303.519 373.625 306.098C372.779 310.198 369.826 313.385 366.207 315.296C360.122 318.511 346.087 320.806 338.555 323.42Q333.306 325.193 328.137 327.184Q322.967 329.175 317.885 331.381Q312.804 333.587 307.819 336.004Q302.834 338.421 297.955 341.045Q293.076 343.669 288.311 346.495Q283.546 349.321 278.903 352.344Q274.261 355.368 269.749 358.583Q265.238 361.798 260.865 365.2C237.055 384.077 215.754 407.472 200.305 433.703C194.546 443.482 189.502 454.025 185.396 464.607C182.386 472.365 180.077 483.639 175.265 490.419C173.823 492.451 171.473 493.79 169.378 495.069C165.66 495.341 161.849 494.799 158.695 492.658C156.315 491.043 154.969 488.672 154.431 485.883C151.464 470.524 176.635 426.278 185.573 412.829C226.244 351.634 287.201 308.17 359.591 293.54Z"/>
	<path fill="#1565C0" transform="scale(0.673077 0.672852)" d="M361.958 298.941C362.018 298.946 362.08 298.946 362.14 298.955C364.268 299.297 366.292 300.009 367.442 301.981C368.66 304.072 368.392 304.973 367.654 307.054C362.549 312.383 324.448 321.857 313.433 326.885C258.839 351.803 212.32 394.672 186.133 449.011C182.744 456.043 179.269 463.544 176.762 470.943C175.252 475.401 174.404 480.013 172.716 484.426C171.383 487.91 169.779 488.758 166.548 490.171C166.444 490.124 166.341 490.075 166.236 490.029C165.016 489.492 163.782 488.968 162.626 488.298C161.051 487.385 160.112 485.861 159.753 484.094C158.735 479.094 161.833 473.334 163.556 468.77C172.568 444.909 184.244 422.996 199.309 402.379C236.549 351.414 299.07 308.673 361.958 298.941Z"/>
	<path fill="#1E1C2A" transform="scale(0.673077 0.672852)" d="M377.399 213.587C378.376 213.499 379.371 213.444 380.348 213.572C383.829 214.027 387.105 215.776 389.085 218.72C390.94 221.476 391.42 224.812 390.508 228.006C388.549 234.861 382.887 235.806 376.859 237.233C317.618 251.258 266.215 272.739 218.339 311.435C175.42 346.125 138.335 394.271 117.866 445.639C113.797 455.851 105.867 485.861 101.436 492.605C99.9124 494.925 97.7328 496.143 95.3552 497.426L94.4925 497.887C90.7939 497.906 87.5333 497.55 84.4092 495.381C81.8275 493.589 80.3562 490.787 79.828 487.74C78.5207 480.199 82.9439 470.625 85.4366 463.523C97.005 430.562 111.43 399.127 131.42 370.329Q134.089 366.485 136.853 362.708Q139.616 358.932 142.472 355.225Q145.329 351.518 148.276 347.883Q151.223 344.248 154.259 340.687Q157.296 337.126 160.419 333.642Q163.543 330.157 166.752 326.751Q169.961 323.345 173.253 320.02Q176.546 316.695 179.919 313.452Q183.293 310.209 186.746 307.051Q190.199 303.893 193.729 300.821Q197.26 297.749 200.865 294.766Q204.47 291.783 208.148 288.89Q211.826 285.997 215.575 283.196Q219.323 280.396 223.14 277.689Q226.957 274.981 230.84 272.37Q234.723 269.758 238.669 267.244Q242.615 264.729 246.622 262.313Q250.63 259.897 254.695 257.581Q258.761 255.265 262.883 253.051Q267.005 250.836 271.181 248.725Q275.357 246.613 279.583 244.605Q283.81 242.598 288.085 240.696Q292.36 238.794 296.681 236.998Q301.002 235.203 305.366 233.515Q309.73 231.827 314.135 230.248Q318.539 228.669 322.982 227.199Q327.424 225.729 331.901 224.37Q336.379 223.012 340.888 221.764Q345.398 220.516 349.937 219.381Q354.477 218.245 359.042 217.223Q363.608 216.2 368.198 215.291Q372.788 214.382 377.399 213.587Z"/>
	<path fill="#1565C0" transform="scale(0.673077 0.672852)" d="M373.532 219.798C375.64 219.42 378.792 218.867 380.867 219.358C382.325 219.702 384.018 221.369 384.593 222.714C385.567 224.995 385.024 226.21 384.252 228.373C379.088 233.948 362.12 234.301 354.539 236.469C339.743 240.7 324.945 245.456 310.678 251.226C228.057 284.642 158.849 346.156 120.311 427.017C115.08 437.993 110.331 448.941 106.495 460.497C103.225 470.35 100.686 480.795 96.5651 490.313L96.1875 491.172C93.1863 492.668 91.2332 492.495 88.0013 492.15C86.4913 490.915 85.67 490.412 85.3532 488.332C84.455 482.436 87.9843 473.989 89.7756 468.433C101.49 432.094 118.183 399.002 139.913 367.627C192.196 292.139 283.517 236.051 373.532 219.798Z"/>
	<path fill="#1E1C2A" transform="scale(0.673077 0.672852)" d="M1153.7 36.8852C1154.23 36.8099 1154.75 36.7363 1155.27 36.6855C1158.19 36.4039 1160.76 36.1756 1163.6 37.0618C1182.62 42.9852 1201.15 51.0687 1219.66 58.3976L1291.33 86.185L1351.08 109.33C1360.43 113.015 1370.67 116.337 1379.55 121.001C1381.57 122.064 1382.99 122.558 1383.62 124.848C1385.66 132.224 1385.49 217.923 1384.5 230.32C1384.38 231.907 1383.89 233.213 1383.11 234.597C1393.49 231.564 1403.91 225.983 1413.75 221.47L1466.02 197.327C1477.69 191.901 1506 180.356 1515.27 173.686C1525.98 175.185 1537.99 181.65 1548.16 185.71L1596.07 204.643L1679.83 237.677C1699.53 245.322 1720.08 252.242 1738.97 261.697C1742.18 271.719 1740.4 306.769 1740.43 319.69L1740.17 470.242L1740.26 692.89C1740.18 713.893 1740.63 734.939 1740.23 755.934C1740.17 759.371 1740.14 762.715 1739.13 766.035C1723.29 774.592 1706.29 781.593 1689.9 789.084L1612.8 824.686L1545.55 855.864C1531.58 862.435 1517.59 869.894 1503.15 875.318C1492.44 873.216 1481.41 868.171 1471.14 864.407L1404.23 839.411L1329.5 811.971C1314.84 806.651 1299.14 801.896 1285.06 795.202C1283.18 794.306 1278.06 792.347 1277.08 790.644C1272.55 782.746 1280.02 730.055 1275.21 717.38C1275.13 717.177 1275.04 716.98 1274.95 716.78C1272.6 719.509 1203.43 751.845 1193.18 756.171C1166.57 767.399 1135.01 768.111 1107.01 762.721C1087.8 759.024 1069.46 750.418 1051.3 743.345L983.664 717.357Q867.172 673.169 751.414 627.088C750.983 627.547 750.543 627.982 750.097 628.427C745.74 632.773 740.254 634.897 734.231 635.899C723.758 637.642 714.168 635.668 705.584 629.476C695.726 633.408 622.529 664.183 618.633 668.235C619.405 669.422 620.206 670.644 620.721 671.968C621.573 674.156 621.428 676.383 620.456 678.513C618.948 681.815 616.067 684.013 612.783 685.34C600.921 690.132 588.435 688.534 576.921 683.751C563.624 689.635 550.074 694.858 536.909 701.061Q541.953 720.282 546.544 739.617C569.647 748.181 592.323 758.353 615.181 767.59L720.031 810.365C738.111 817.784 757.954 824.366 774.826 834.136C774.979 840.695 776.941 855.531 772.774 860.766C771.315 862.599 503.652 985.779 491.526 986.802C484.954 987.357 477.078 986.254 470.909 984.148C458.207 979.811 445.698 973.791 433.304 968.599L364.727 940.029C348.737 933.364 255.679 897.289 248.556 890.972C243.737 886.699 243.789 880.046 243.294 874.123C238.25 870.962 235.571 868.456 232.983 863.018C229.127 854.915 226.745 845.924 223.988 837.401Q215.833 812.119 207.985 786.74L179.393 697.216C175.03 683.606 170.089 670.082 166.115 656.368C164.594 651.117 162.14 640.591 165.274 635.582C167.15 632.586 170.181 629.729 173.3 628.077C190.36 619.042 208.807 612.044 226.383 604.018L364.317 542.276L431.941 511.956C443.639 506.673 456.863 499.255 469.234 495.989C472.659 495.086 475.972 495.541 479 497.363C482.162 499.265 483.733 503.981 484.944 507.307C492.136 527.067 496.582 548.796 502.078 569.13L535.631 694.906C547.136 689.463 561.377 686 571.561 678.427C571.729 676.544 571.991 674.695 572.478 672.867C573.491 669.064 575.727 666.091 579.184 664.167C588.514 658.975 601.624 661.543 611.382 664.184C621.812 659.505 696.548 628.111 700.907 624.352C704.441 621.305 704.168 615.467 709.088 612.421C717.161 607.423 730.308 609.06 739.099 611.164C763.065 597.916 789.319 587.504 814.284 576.231C848.23 560.903 881.981 544.848 916.289 530.361C916.812 503.889 916.368 477.332 916.437 450.85L916.6 229.814C916.669 215.167 914.334 155.57 918.42 144.94C919.412 142.359 925.59 139.553 928.04 138.335C961.123 121.887 995.885 107.751 1029.67 92.7188C1071.06 74.3033 1112.15 54.8811 1153.7 36.8852Z"/>
	<path fill="#FDFDFD" transform="scale(0.673077 0.672852)" d="M593.991 666.99C594.485 666.993 594.978 666.989 595.471 667.016C601.054 667.32 609.53 668.225 613.312 673.028C614.529 674.573 614.335 675.181 614.203 677.018C610.825 681.629 605.19 681.759 599.973 682.612C592.146 682.489 585.031 682.388 579.173 676.453C578.346 674.115 578.252 674.059 579.142 671.763C583.296 667.857 588.627 667.67 593.991 666.99Z"/>
	<path fill="#FDFDFD" transform="scale(0.673077 0.672852)" d="M724.318 614.518C728.223 614.533 731.906 614.823 735.708 615.773C738.722 616.525 743.137 618.511 744.621 621.381C745.492 623.067 745.153 623.644 744.692 625.37C741.258 629.205 736.364 629.6 731.559 630.463C728.391 630.455 725.175 630.494 722.015 630.254Q721.119 630.187 720.234 630.034Q719.349 629.881 718.483 629.644Q717.616 629.407 716.776 629.089Q715.937 628.77 715.131 628.372Q714.326 627.974 713.562 627.501Q712.799 627.028 712.084 626.484Q711.369 625.94 710.71 625.33Q710.05 624.72 709.452 624.05C708.736 621.684 708.724 621.619 709.691 619.347C713.96 615.643 718.886 615.264 724.318 614.518Z"/>
	<path fill="#90caf9" transform="scale(0.673077 0.672852)" d="M473.474 970.179C482.448 971.903 490.877 972.109 499.768 969.586C512.88 965.866 525.407 958.054 537.859 952.514C560.19 942.578 763.815 848.913 767.521 849.372L767.929 851.15C766.02 853.708 762.32 855.013 759.49 856.356C743.289 864.046 726.639 870.834 710.323 878.286L588.866 933.768Q559.192 947.357 529.34 960.548C518.019 965.624 503.315 974.405 491.125 976.076C485.582 976.836 478.101 976.44 473.063 973.833C447.846 965.261 423.48 953.407 398.945 943.057L287.739 897.205C278.039 893.122 262.571 888.921 254.213 883.153C252.477 881.955 251.984 880.661 251.65 878.64L252.702 877.927C258.764 878.99 264.152 882.976 269.861 885.201C314.059 902.432 358.3 920.766 401.656 940.014C425.772 949.573 449.564 960.108 473.474 970.179Z"/>
	<path fill="#FDFDFD" transform="scale(0.673077 0.672852)" d="M1513.83 187.998C1514.4 187.847 1514.96 187.706 1515.53 187.593C1517.69 187.167 1519.29 187.543 1521.33 188.26C1535.72 193.334 1549.91 199.505 1564.12 205.103L1648.02 237.951Q1673.36 247.579 1698.57 257.544C1705 260.103 1712.75 262.282 1718.46 266.059C1716.41 268.134 1516.25 361.107 1504.97 365.082C1501.73 362.708 1348.45 305.728 1337.6 303.084C1333.72 299.444 1303.12 289.532 1296.59 287.933C1307.1 284.296 1326.22 276.292 1335.14 270.016C1342.8 271.578 1350.75 275.595 1358.05 278.459L1404.63 296.748L1468.67 320.947C1479.38 325.082 1490.46 328.967 1500.76 334.026C1507.04 332.725 1641.33 271.394 1642.37 270.002C1643.2 268.9 1642.81 268.621 1642.6 267.356C1640.33 264.941 1489.91 205.15 1480.33 203.575C1487.96 201.285 1507.31 192.181 1513.83 187.998Z"/>
	<path fill="#FDFDFD" transform="scale(0.673077 0.672852)" d="M1471.58 207.554L1475.05 207.052C1494.48 215.191 1624.4 264.687 1628.58 268.662C1625.72 271.93 1510.54 324.001 1501.15 326.947C1469.42 313.025 1435.96 301.498 1403.54 289.211C1383.88 281.764 1363.44 272.173 1343.2 266.706C1349.4 264.77 1355.63 261.237 1361.52 258.48L1398.69 241.12L1448.91 218.343C1455.9 215.179 1465.51 212.135 1471.58 207.554Z"/>
	<path fill="#FDFDFD" transform="scale(0.673077 0.672852)" d="M1112.49 67.993C1112.67 67.9729 1112.85 67.9398 1113.04 67.9327C1118.14 67.7351 1265.65 125.406 1269.49 128.746C1268.98 129.146 1268.52 129.519 1267.95 129.819C1260.72 133.587 1252.81 136.642 1245.38 140.068L1195.71 163.052C1180.92 169.862 1159.31 181.431 1144.81 186.026C1142.94 186.617 1141.28 186.282 1139.45 185.769C1133.95 181.659 1116.31 176.486 1108.78 173.634Q1045.42 149.533 981.346 127.41Q1018.24 110.036 1055.69 93.9166C1067.38 88.8093 1105.45 74.1739 1112.49 67.993Z"/>
	<path fill="#FDFDFD" transform="scale(0.673077 0.672852)" d="M1156.53 48.44C1158.74 48.2715 1160.78 48.6372 1162.87 49.3585C1204.4 63.6861 1245.04 81.205 1286.02 97.0659C1300.2 102.556 1352.6 120.795 1360.28 126.604C1357.85 129.4 1352.2 131.418 1348.85 133.019C1304.13 154.371 1258.71 174.462 1213.64 195.07L1171.1 214.702C1163.09 218.4 1155.06 222.664 1146.66 225.379C1141.12 220.622 1002.75 170.827 984.402 163.906Q961.566 154.988 938.516 146.64Q955.715 138.38 973.335 131.06C985.359 135.873 998.124 139.537 1010.35 143.955Q1057.78 161.076 1104.95 178.913C1116.4 183.299 1132.27 187.653 1142.74 193.371C1155.36 189.65 1167.76 183.046 1179.67 177.509L1237.44 150.668Q1250.64 144.534 1263.93 138.587C1268.46 136.598 1274.09 134.832 1278.23 132.203C1280.31 130.882 1280.89 130.003 1281.34 127.65C1280.44 126.193 1279.8 125.781 1278.25 125.058C1245.26 109.678 1207.05 96.7203 1172.77 83.5276C1156.16 77.1348 1139.48 68.3235 1122.33 63.6275C1133.25 60.6762 1146.77 54.1702 1156.53 48.44Z"/>
	<path fill="#FDFDFD" transform="scale(0.673077 0.672852)" d="M915.049 536.871C920.153 541.504 911.854 615.835 918.153 627.667C919.202 629.638 922.683 631.05 924.629 631.872C945.596 640.719 967.708 647.719 988.985 655.895L1145.36 715.511C1152.74 713.503 1269.45 658.96 1274.72 654.624C1275.1 655.185 1275.42 655.744 1275.65 656.381C1277.27 660.805 1277.04 704.926 1274.93 709.422C1274.84 709.569 1274.76 709.727 1274.65 709.861C1272.24 712.751 1196.03 747.866 1187.78 751.1C1180.74 753.861 1173.62 755.856 1166.14 756.939C1158.77 758.619 1150.8 759.297 1143.27 759.576Q1137.33 759.739 1131.39 759.432Q1125.45 759.125 1119.56 758.349Q1113.67 757.573 1107.85 756.334Q1102.04 755.094 1096.34 753.399C1071.68 746.041 754.098 622.25 753.019 621.22C750.826 619.129 749.118 616.354 746.781 614.175C801.948 586.548 860.066 564.833 915.049 536.871Z"/>
	<path fill="#FDFDFD" transform="scale(0.673077 0.672852)" d="M537.842 743.873C539.855 743.796 541.749 744.371 543.629 745.048C565.379 752.878 586.797 762.992 608.229 771.759C654.053 790.502 700.285 808.373 745.774 827.91C751.727 830.467 761.44 832.543 766.255 836.772C768.181 838.464 768.319 839.27 768.455 841.645C767.184 843.07 525.018 953.599 505.365 961.726C499.133 964.303 493.675 965.741 486.935 966.38C482.629 966.442 478.574 965.846 474.517 964.374C460.176 959.172 446.036 952.394 431.942 946.46L338.92 907.194L282.948 884.075C272.711 879.804 261.36 875.925 251.959 870.014C276.986 855.906 305.456 846.428 331.764 834.792L476.787 770.678C497.103 761.69 517.69 753.207 537.842 743.873Z"/>
	<path fill="#1E1C2A" transform="scale(0.673077 0.672852)" d="M575.575 860.597C585.012 863.029 629.839 879.89 637.226 884.589L637.416 886.575C634.642 890.357 570.762 917.665 562.166 921.52C558.4 921.048 504.916 899.767 501.249 896.989C505.174 891.72 564.829 865.935 575.575 860.597Z"/>
	<path fill="#90caf9" transform="scale(0.673077 0.672852)" d="M575.904 866.986C592.993 871.451 610.307 879.626 626.724 886.177L563.422 914.733C557.538 915.052 521.894 899.581 513.408 896.265C534.065 886.211 555.132 876.827 575.904 866.986Z"/>
	<path fill="#1E1C2A" transform="scale(0.673077 0.672852)" d="M539.433 757.132C548.079 761.981 557.658 765.571 566.781 769.475Q591.667 780.063 616.713 790.263C624.127 793.252 632.258 795.775 639.366 799.372C641.277 800.34 641.799 800.79 642.782 802.666C642.549 802.903 642.321 803.146 642.082 803.377C636.505 808.747 583.72 831.048 573.072 835.985L463.809 886.538C446.919 894.2 429.966 902.659 412.666 909.271C406.652 911.569 401.528 912.464 395.092 912.468C379.32 910.494 353.641 897.143 338.144 890.872C324.93 885.525 311.312 880.872 298.277 875.14C295.1 873.743 291.006 872.283 289.68 868.898C295.469 864.619 304.218 862.098 310.901 859.199L360.209 837.774L539.433 757.132Z"/>
	<path fill="#90caf9" transform="scale(0.673077 0.672852)" d="M447.037 824.225C453.606 825.747 460.047 828.996 466.126 831.839L451.647 838.24C448.215 838.9 436.866 832.494 433.124 830.862L447.037 824.225Z"/>
	<path fill="#90caf9" transform="scale(0.673077 0.672852)" d="M470.456 835.452C474.216 835.364 486.594 842.142 490.97 844.021C485.879 846.034 480.851 848.264 475.807 850.392C470.769 850.455 461.21 844.702 456.499 842.574L470.456 835.452Z"/>
	<path fill="#90caf9" transform="scale(0.673077 0.672852)" d="M352.471 847.154L367.376 853.738L346.868 863.053L331.815 856.305L352.471 847.154Z"/>
	<path fill="#90caf9" transform="scale(0.673077 0.672852)" d="M423.891 834.615C429.053 834.121 438.346 839.448 443.111 841.476L427.022 849.814C420.687 848.373 413.965 844.606 407.982 841.968L423.891 834.615Z"/>
	<path fill="#90caf9" transform="scale(0.673077 0.672852)" d="M502.043 799.954C507.812 801.787 513.544 804.7 519.115 807.114C512.975 810.275 506.444 812.922 500.147 815.778C494.45 813.237 488.655 810.945 482.864 808.629C489.127 805.526 495.666 802.828 502.043 799.954Z"/>
	<path fill="#90caf9" transform="scale(0.673077 0.672852)" d="M508.035 777.714C511.317 777.092 520.451 782.726 523.721 784.341C516.512 787.22 509.502 790.585 502.466 793.859C497.162 792.48 491.411 789.451 486.151 787.567L508.035 777.714Z"/>
	<path fill="#90caf9" transform="scale(0.673077 0.672852)" d="M381.249 834.608C385.963 834.816 391.951 838.783 396.156 840.907C389.371 844.402 382.302 847.494 375.401 850.766C372.181 851.264 362.864 846.396 359.311 844.986L381.249 834.608Z"/>
	<path fill="#90caf9" transform="scale(0.673077 0.672852)" d="M529.629 787.46C535.228 788.576 541.415 792.46 546.542 794.961C539.99 798.13 533.095 800.796 526.401 803.664C520.378 801.683 514.46 799.143 508.552 796.832Q519.404 792.852 529.629 787.46Z"/>
	<path fill="#90caf9" transform="scale(0.673077 0.672852)" d="M537.323 764.476C541.695 763.907 549.619 768.343 553.867 770.159C546.296 773.521 538.798 777.067 531.271 780.525C526.873 780.659 519.467 775.98 515.383 774.083Q526.449 769.5 537.323 764.476Z"/>
	<path fill="#90caf9" transform="scale(0.673077 0.672852)" d="M447.657 805.418C452.344 807.738 457.617 809.49 462.489 811.436Q450.415 817.022 438.177 822.241C433.724 821.812 427.361 818.073 423.14 816.26C431.144 812.365 439.504 809.004 447.657 805.418Z"/>
	<path fill="#90caf9" transform="scale(0.673077 0.672852)" d="M397.99 869.326C404.93 871.582 411.636 874.805 418.15 878.066L401.019 885.533L380.227 876.936C385.987 874.105 392.061 871.788 397.99 869.326Z"/>
	<path fill="#90caf9" transform="scale(0.673077 0.672852)" d="M372.966 856.829Q381.829 860.964 390.393 865.688C384.633 868.399 379.139 871.18 373.755 874.587C367.206 871.481 360.489 868.814 353.765 866.113C360.322 863.258 366.783 860.442 372.966 856.829Z"/>
	<path fill="#90caf9" transform="scale(0.673077 0.672852)" d="M475.75 811.406C479.644 811.39 488.782 817.037 492.635 818.856C485.906 822.375 479.318 825.689 472.163 828.259C466.284 825.551 460.405 823.324 454.266 821.276Q465.133 816.614 475.75 811.406Z"/>
	<path fill="#90caf9" transform="scale(0.673077 0.672852)" d="M399.715 892.452C404.599 892.21 415.139 898.248 419.966 900.362C413.576 903.117 406.902 905.326 400.046 906.529C392.285 906.994 386.029 904.469 378.844 901.917L399.715 892.452Z"/>
	<path fill="#90caf9" transform="scale(0.673077 0.672852)" d="M424.274 856.883C430.604 859.713 436.786 862.855 442.991 865.947L425.023 874.287C418.349 872.153 411.887 868.892 405.593 865.846L424.274 856.883Z"/>
	<path fill="#90caf9" transform="scale(0.673077 0.672852)" d="M580.871 809.755C585.526 809.114 595.337 815.322 599.573 817.406L580.626 826.504C574.086 824.726 567.527 821.495 561.232 818.928C567.861 816.109 574.352 812.828 580.871 809.755Z"/>
	<path fill="#90caf9" transform="scale(0.673077 0.672852)" d="M448.09 845.356Q458.337 849.457 468.527 853.698L451.277 862.381C444.809 861.754 436.545 856.472 430.589 853.679C436.378 850.824 442.258 848.126 448.09 845.356Z"/>
	<path fill="#90caf9" transform="scale(0.673077 0.672852)" d="M527.262 809.657C533.416 811.896 539.504 815.423 545.407 818.312C538.694 821.087 532.062 824.099 525.402 827.001C518.99 825.204 512.661 821.847 506.577 819.108C513.586 816.262 520.41 812.864 527.262 809.657Z"/>
	<path fill="#90caf9" transform="scale(0.673077 0.672852)" d="M478.585 790.93C483.043 790.729 491.021 794.93 495.36 796.621L470.327 808.465C464.507 807.364 458.485 803.932 452.51 802.441C461.362 798.997 469.956 794.893 478.585 790.93Z"/>
	<path fill="#FDFDFD" transform="scale(0.673077 0.672852)" d="M400.651 845.298C406.957 846.609 413.451 850.12 419.375 852.71L399.4 862.306C394.385 862.887 384.375 856.093 379.906 853.736L400.651 845.298Z"/>
	<path fill="#90caf9" transform="scale(0.673077 0.672852)" d="M416.923 818.854C421.553 821.655 426.654 823.867 431.511 826.254C421.908 829.053 412.697 833.839 403.62 838C398.631 835.646 393.584 833.699 388.409 831.805Q402.486 824.934 416.923 818.854Z"/>
	<path fill="#90caf9" transform="scale(0.673077 0.672852)" d="M585.057 784.016C591.994 786.43 598.721 789.53 605.462 792.446L583.299 802.61C578.516 802.89 568.595 796.871 563.94 794.749C571.213 791.692 578.538 788.497 585.057 784.016Z"/>
	<path fill="#90caf9" transform="scale(0.673077 0.672852)" d="M553.205 797.194C560.18 797.56 569.892 803.115 576.368 805.871L556.385 814.232C556.246 814.284 556.108 814.339 555.968 814.388C551.338 816.002 538.868 808.537 534.187 806.374C540.716 803.585 546.983 800.617 553.205 797.194Z"/>
	<path fill="#90caf9" transform="scale(0.673077 0.672852)" d="M498.084 822.075C503.707 822.151 513.25 827.939 518.58 830.313C512.263 833.886 505.464 836.874 498.944 840.08C494.123 841.131 482.382 834.067 477.916 831.93C484.78 828.965 491.417 825.454 498.084 822.075Z"/>
	<path fill="#90caf9" transform="scale(0.673077 0.672852)" d="M373.324 879.939C380.264 881.861 387.467 886.254 393.993 889.401Q383.333 893.868 372.767 898.552C366.014 895.113 358.245 892.72 351.158 889.963L373.324 879.939Z"/>
	<path fill="#90caf9" transform="scale(0.673077 0.672852)" d="M559.256 773.191C565.965 774.925 572.946 778.701 579.365 781.429L556.559 791.593C552.763 792.72 540.954 786.073 536.998 784.327L559.256 773.191Z"/>
	<path fill="#90caf9" transform="scale(0.673077 0.672852)" d="M612.583 795.483C619.046 796.663 625.796 800.064 631.825 802.611Q619.619 808.565 607.303 814.287C603.068 814.442 592.586 807.911 588.057 805.987Q600.355 800.816 612.583 795.483Z"/>
	<path fill="#90caf9" transform="scale(0.673077 0.672852)" d="M323.346 860.434C327.786 859.994 359.492 874.374 366.481 877.021Q355.245 881.623 344.278 886.835Q322.441 878.121 300.405 869.923C307.842 866.418 315.731 863.556 323.346 860.434Z"/>
	<path fill="#90caf9" transform="scale(0.673077 0.672852)" d="M552.459 820.639C558.947 824.033 565.972 826.7 572.705 829.594C524.501 852.048 476.436 875.121 427.69 896.372C423.157 897.108 412.831 890.963 408.436 888.946C422.561 882.853 436.368 875.372 450.368 868.873C484.482 853.038 518.788 837.386 552.459 820.639Z"/>
	<path fill="#90caf9" transform="scale(0.673077 0.672852)" d="M1370.54 135.554C1371.36 135.736 1372.13 135.607 1372.54 136.437C1373.68 138.754 1373.52 234.938 1372.02 239.884C1368.86 243.056 1360.51 245.833 1356.22 247.835C1346.74 252.266 1281.56 279.932 1277.57 285.113C1275.75 287.465 1275.66 293.154 1275.57 296.06C1274.76 320.445 1275.9 345.272 1275.84 369.707L1276.03 577.809C1276.02 586.607 1277.62 636.737 1274.75 641.787C1273.48 643.143 1160.4 696.794 1153.72 698.876C1155.2 679.638 1154.09 659.334 1154.04 640.007L1153.91 534.065L1153.54 351.079C1153.53 314.745 1154.13 278.299 1153.49 241.976C1153.45 239.496 1153.27 237.546 1152.33 235.226C1159.39 233.661 1167.1 229.216 1173.69 226.216L1214.41 207.63Q1267.87 183.57 1320.96 158.706C1337.37 151.074 1354.68 144.198 1370.54 135.554Z"/>
	<path fill="#FDFDFD" transform="scale(0.673077 0.672852)" d="M471.767 507.505C477.04 511.385 528.266 715.415 534.418 738.926C500.71 754.567 465.981 768.789 431.856 783.557L344.291 822.283C313.518 835.566 281.146 847.671 251.471 863.232L250.27 862.83L249.339 860.202C244.783 847.075 241.381 833.539 237.102 820.314Q220.311 769.874 204.366 719.16Q196.421 693.916 188.862 668.553C186.125 659.442 182.472 649.904 181.086 640.49C183.317 636.614 189.092 633.844 193.02 631.857C224.123 616.129 257.178 603.431 288.974 589.087Q379.888 547.216 471.767 507.505Z"/>
	<path fill="#1E1C2A" transform="scale(0.673077 0.672852)" d="M458.412 534.144C460.667 534.509 461.737 534.936 463.347 536.575C468.483 550.586 512.872 724.593 512.496 726.156C512.069 727.938 509.609 729.239 508.069 730.102C496.442 736.615 483.241 741.433 471.017 746.773L407.648 774.778L314.88 816.019C298.515 823.159 282.012 830.828 265.203 836.83C262.656 837.74 260.68 838.155 257.979 837.421Q239.096 778.186 220.936 718.724C213.923 695.999 204.675 672.127 200.578 648.743C225.251 635.949 254.065 624.998 279.653 613.343C338.867 586.371 398.296 559.021 458.412 534.144Z"/>
	<path fill="#1565C0" transform="scale(0.673077 0.672852)" d="M454.678 547.663C457.13 550.615 457.722 557.079 458.516 560.828C450.415 565.307 441.326 568.723 432.862 572.492L376.112 597.521Q296.581 633.707 216.688 669.088L212.485 655.582C239.671 642.051 268.156 630.579 295.893 618.164Q375.098 582.489 454.678 547.663Z"/>
	<path fill="#FDFDFD" transform="scale(0.673077 0.672852)" d="M458.32 567.986L460.287 568.125C464.091 573.976 466.711 592.023 468.781 599.877L500.217 720.667C473.88 731.619 448.079 743.788 422.05 755.437L323.953 798.35C310.879 804.047 276.998 820.864 265.411 823.365L264.55 821.984Q250.681 779.322 237.729 736.373C231.495 715.911 225.661 695.331 218.51 675.163C258.927 657.975 298.929 639.456 338.974 621.394L458.32 567.986Z"/>
	<path fill="#1E1C2A" transform="scale(0.673077 0.672852)" d="M433.509 625.694C433.885 625.719 434.243 625.714 434.597 625.892C436.271 626.73 436.257 627.519 436.709 629.124C432.51 635.085 397.497 648.608 387.96 652.994C386.392 652.666 385.843 652.272 384.686 651.249C384.845 650.568 384.877 650.308 385.098 649.707C386.799 645.092 426.221 628.883 433.509 625.694Z"/>
	<path fill="#1E1C2A" transform="scale(0.673077 0.672852)" d="M429.642 607.861C431.241 607.819 431.684 608.137 433.079 608.848L433.677 610.713C431.523 615.892 390.055 632.964 382.287 636.493C380.258 636.607 379.901 636.399 378.155 635.527L377.794 633.822C382.576 627.467 420.973 611.899 429.642 607.861Z"/>
	<path fill="#1E1C2A" transform="scale(0.673077 0.672852)" d="M352.876 637.373C354.63 637.246 356.573 637.048 358.304 637.419C362.093 638.233 365.525 640.489 367.552 643.838C369.721 647.422 370.05 651.627 369.093 655.647C367.753 661.273 364.133 664.297 359.374 667.171C357.657 667.322 356.044 667.361 354.357 666.994C350.318 666.115 346.722 663.818 344.61 660.197C342.506 656.59 342.264 652.039 343.36 648.07C344.86 642.64 348.171 640.078 352.876 637.373Z"/>
	<path fill="#1565C0" transform="scale(0.673077 0.672852)" d="M353.037 643.459C356.022 643.235 358.599 643.323 360.965 645.394C362.895 647.083 363.676 649.149 363.636 651.691C363.569 656.031 361.541 658.342 358.728 661.28C355.899 661.335 353.251 660.691 351.124 658.709C349.256 656.97 348.44 654.785 348.463 652.253C348.5 648.198 350.357 646.136 353.037 643.459Z"/>
	<path fill="#1E1C2A" transform="scale(0.673077 0.672852)" d="M441.247 590.613C441.825 590.867 441.923 590.884 442.407 591.177C444.018 592.151 444.631 593.489 445.248 595.2C450.394 609.458 453.254 625.384 456.954 640.107C462.753 663.183 469.207 686.233 474.166 709.497C466.601 713.725 458.151 716.782 450.171 720.201L405.439 739.376C365.165 756.821 325.247 775.246 284.743 792.127C279.288 776.814 275.367 760.856 270.373 745.371C264.786 728.048 252.555 696.103 250.421 679.45C254.177 673.374 285.624 661.916 293.09 658.661L295.907 657.377C300.546 655.27 308.089 650.452 312.995 652.294L313.605 653.865C313.352 654.433 312.989 655.686 312.607 656.11C308.286 660.903 266.049 676.277 256.433 681.625L255.607 682.09C283.913 693.856 310.802 709.137 339.363 720.379C346.504 704.599 356.055 689.248 364.853 674.328C379.231 682.293 393.095 691.97 406.689 701.206C407.186 695.932 407.23 680.729 410.285 677.132C418.676 678.101 457.237 702.415 467.308 708.234C465.952 696.299 461.927 684.068 458.916 672.437Q451.639 644.743 444.98 616.894C443.369 610.214 439.991 601.463 440 594.737C440.002 593.189 440.514 591.946 441.247 590.613Z"/>
	<path fill="#FDFDFD" transform="scale(0.673077 0.672852)" d="M366.992 683.017C380.828 689.221 392.347 701.664 406.423 707.264C408.637 708.145 409.81 708.534 412.065 707.597C414.252 700.865 413.357 691.789 414.324 684.554C428.906 693.426 443.855 701.606 458.792 709.857C414.004 728.338 369.624 748.286 325.344 767.96L288.494 784.427C279.285 752.969 267.947 721.834 259.503 690.226C286.032 703.772 313.786 715.902 341.006 728.029C350.62 714.054 358.425 697.753 366.992 683.017Z"/>
	<path fill="#90caf9" transform="scale(0.673077 0.672852)" d="M928.343 154.769C985.569 176.514 1043.25 197.168 1100.3 219.346C1109.9 223.08 1133.59 230.148 1140.95 234.986C1143.6 240.653 1142.09 334.268 1142.09 347.126L1142.18 599.529L1142.12 666.67C1142.15 676.596 1143.46 687.952 1141.92 697.688C1141.56 699.956 1141.29 699.884 1139.51 701.194C1134.99 697.083 951.09 628.781 927.955 620.863L928.343 154.769Z"/>
	<path fill="#1E1C2A" transform="scale(0.673077 0.672852)" d="M949.431 186.66C957.877 187.787 1115.19 245.115 1122.54 250.144C1124.83 263.115 1123.24 278.825 1123.22 292.057L1123.01 381.568L1122.97 586.299C1122.97 609.381 1123.72 632.534 1123.39 655.604C1123.33 659.596 1123.28 663.747 1121.98 667.555C1119.94 669.456 1119 669.519 1116.35 670.044C1080.04 654.668 1042.49 641.492 1005.59 627.558C992.554 622.636 955.078 610.555 946.072 603.149C942.67 593.575 944.789 503.826 944.807 487.489L944.985 230.922C945.011 221.838 943.462 197.358 946.171 190.136C946.557 189.105 948.59 187.496 949.431 186.66Z"/>
	<path fill="#FDFDFD" transform="scale(0.673077 0.672852)" d="M957.255 200.688L1060.71 238.3C1072.38 242.47 1101.45 251.191 1110.65 256.917C1111.33 258.257 1111.77 259.825 1111.83 261.331C1112.5 276.172 1111.8 291.322 1111.76 306.194L1111.7 392.25L1111.74 643.041C1111.73 647.396 1112.5 651.962 1109.31 655.126C1103.92 651.027 1077.8 642.299 1069.77 639.228C1031.93 624.77 993.796 611.02 956.266 595.79L957.255 200.688Z"/>
	<path fill="#1E1C2A" transform="scale(0.673077 0.672852)" d="M1042.03 470.639C1045.35 469.948 1048.24 469.406 1051.48 470.86C1055.42 472.623 1058.83 476.355 1060.3 480.409C1061.36 483.363 1061.42 486.806 1059.9 489.619C1058.34 492.511 1056.42 493.867 1053.35 494.877C1052.89 495.003 1052.66 495.084 1052.22 495.147C1048.73 495.636 1044.21 494.636 1041.44 492.428C1038.34 489.959 1037.29 486.235 1036.99 482.442C1036.57 477.218 1038.8 474.373 1042.03 470.639Z"/>
	<path fill="#1565C0" transform="scale(0.673077 0.672852)" d="M1045.46 475.969C1046.55 475.938 1047.7 475.899 1048.78 476.102C1050.83 476.488 1053.03 478.145 1053.98 479.996C1054.95 481.879 1055.11 483.905 1054.2 485.841C1053.14 488.08 1051.08 488.914 1048.87 489.614C1047.15 489.096 1045.18 488.154 1043.96 486.817C1042.67 485.394 1041.56 483.336 1041.8 481.347C1042.12 478.662 1043.63 477.645 1045.46 475.969Z"/>
	<path fill="#1E1C2A" transform="scale(0.673077 0.672852)" d="M1009.52 454.303C1011.24 454.186 1012.99 454.161 1014.7 454.392C1018.57 454.917 1022.45 457.843 1024.72 460.923Q1025.19 461.549 1025.6 462.22Q1026 462.891 1026.33 463.6Q1026.67 464.309 1026.93 465.048Q1027.19 465.788 1027.37 466.55Q1027.55 467.312 1027.65 468.089Q1027.76 468.865 1027.78 469.649Q1027.8 470.432 1027.74 471.213Q1027.69 471.995 1027.55 472.766C1026.65 477.709 1024.11 479.938 1020.14 482.605C1018 482.787 1015.8 482.91 1013.67 482.539C1009.82 481.869 1006.12 479.057 1003.94 475.889Q1003.52 475.292 1003.16 474.656Q1002.8 474.02 1002.51 473.351Q1002.22 472.682 1002 471.987Q1001.77 471.292 1001.62 470.579Q1001.47 469.865 1001.39 469.139Q1001.31 468.414 1001.3 467.684Q1001.3 466.954 1001.36 466.227Q1001.43 465.5 1001.57 464.784C1002.54 459.64 1005.33 457.098 1009.52 454.303Z"/>
	<path fill="#1565C0" transform="scale(0.673077 0.672852)" d="M1010.55 460.204C1013.19 460.229 1015.28 460.505 1017.53 462.023C1019.94 463.653 1021.48 465.939 1021.84 468.853C1022.28 472.479 1020.86 474.45 1018.75 477.117C1016.16 476.997 1013.6 476.675 1011.38 475.232C1009.26 473.856 1007.76 471.959 1007.38 469.414C1006.82 465.662 1008.52 463.108 1010.55 460.204Z"/>
	<path fill="#1E1C2A" transform="scale(0.673077 0.672852)" d="M1024.19 533.55C1031.97 532.957 1037.1 533.22 1043.9 537.339C1052 542.241 1058.49 550.827 1060.66 560.077C1062.06 566.031 1061.88 572.772 1058.49 578.062C1054.97 583.566 1049.63 586.106 1043.47 587.461C1040.53 587.786 1037.85 587.83 1034.94 587.202C1026.24 585.323 1018.3 579.009 1013.6 571.574C1009.72 565.447 1007.97 558.239 1009.68 551.101C1011.69 542.699 1017.07 537.819 1024.19 533.55Z"/>
	<path fill="#1565C0" transform="scale(0.673077 0.672852)" d="M1025.75 539.838C1032.11 539.291 1036.41 539.802 1041.82 543.423C1048.41 547.837 1053.62 555.044 1054.99 562.939C1055.75 567.349 1055.41 571.845 1052.63 575.525C1049.81 579.273 1046.01 580.872 1041.49 581.52C1037.39 581.79 1033.51 580.67 1029.91 578.712C1021.63 574.205 1016.97 565.817 1014.35 557.092C1016.43 548.689 1018.22 544.541 1025.75 539.838Z"/>
	<path fill="#1E1C2A" transform="scale(0.673077 0.672852)" d="M965.469 214.933C976.662 215.437 1033.27 238.407 1048.83 243.968C1064.71 249.642 1081.06 254.491 1096.74 260.653C1099.88 261.889 1102.76 263.189 1105.34 265.408C1107.78 269.555 1108.27 309.254 1106.58 314.306C1105.65 317.072 1104.64 317.244 1102.16 318.421L1100.68 318.654C1083.28 311.935 970.61 273.872 964.876 268.915C962.933 267.236 962.562 262.895 962.339 260.445C961.746 253.923 960.658 222.063 963.063 217.809C963.593 216.872 964.76 215.78 965.469 214.933Z"/>
	<path fill="#FDFDFD" transform="scale(0.673077 0.672852)" d="M973.158 228.839C1001.15 239.173 1029.56 248.921 1057.75 258.711C1067.48 262.087 1086.48 266.832 1094.57 272.189C1094.89 272.786 1095.15 273.388 1095.37 274.027C1097.02 278.759 1096.55 300.246 1094.46 304.454C1088.28 303.949 1065.73 294.245 1057.89 291.409C1029.73 281.223 1001.14 271.829 973.234 260.991L973.158 228.839Z"/>
	<path fill="#1E1C2A" transform="scale(0.673077 0.672852)" d="M966.303 350.119C971.593 350.191 1082.76 389.645 1096.65 395.43C1100.23 396.921 1104.36 398.667 1107.11 401.419C1108.06 406.952 1107.74 442.565 1106.47 447.527C1105.7 450.516 1104.69 450.929 1102.2 452.403C1101.37 452.865 1100.76 453.059 1099.8 453.036C1095.25 452.926 985.637 413.06 971.242 407.476C969.265 406.709 965.796 405.512 964.393 403.848C960.077 398.728 961.722 367.671 962.132 360.115C962.4 355.151 962.626 353.437 966.303 350.119Z"/>
	<path fill="#FDFDFD" transform="scale(0.673077 0.672852)" d="M973.078 363.107C999.686 373.32 1026.93 382.393 1053.85 391.764C1063.46 395.11 1087.37 401.875 1094.38 406.879C1094.75 407.556 1095.06 408.242 1095.32 408.971C1097.03 413.883 1096.49 435.186 1094.47 439.573C1092.49 439.733 986.97 401.203 973.117 396.517L973.078 363.107Z"/>
	<path fill="#1E1C2A" transform="scale(0.673077 0.672852)" d="M964.728 282.304L965.595 282.288C966.796 282.259 967.972 282.275 969.161 282.46C983.562 284.703 999.205 293.006 1013.11 297.878C1040.86 307.602 1070.03 316.147 1097.04 327.691C1099.94 328.931 1104.04 330.573 1105.79 333.319C1108.26 337.194 1107.85 375.431 1106.2 381.301C1105.47 383.886 1104.32 384.154 1102.1 385.345L1101.27 385.895C1097.89 386.265 973.665 341.758 966.078 336.932C963.816 335.492 963.223 334.433 962.667 331.833C960.85 323.336 960.344 288.877 964.728 282.304Z"/>
	<path fill="#FDFDFD" transform="scale(0.673077 0.672852)" d="M972.984 295.581Q1013.32 309.436 1053.46 323.841C1066.63 328.496 1082.1 332.459 1094.41 338.81C1094.81 339.408 1095.15 339.9 1095.33 340.609C1096.92 346.605 1097.49 366.83 1094.45 372.014C1090.59 372.265 986.192 333.085 973.031 328.248Q973.135 311.914 972.984 295.581Z"/>
	<path fill="#90caf9" transform="scale(0.673077 0.672852)" d="M1286.77 298.217C1286.95 298.175 1287.13 298.125 1287.31 298.092C1289.21 297.746 1290.42 298.011 1292.22 298.591C1340.51 314.19 1387.96 333.803 1435.56 351.453C1448.11 356.105 1489.24 369.226 1498.89 375.229C1498.96 375.388 1499.05 375.543 1499.11 375.706C1501.69 382.226 1500.13 705.946 1500.16 735.724C1500.18 750.774 1502.24 854.724 1499.57 860.892C1499.54 860.932 1499.51 860.989 1499.47 861.013C1499.27 861.114 1499.06 861.178 1498.85 861.258C1496.97 861.992 1308.22 790.488 1286.72 783.673C1289.6 775.203 1287.77 661.324 1287.77 643.547L1287.75 425.448C1287.77 385.39 1288.29 345.259 1287.75 305.209C1287.72 302.663 1287.67 300.634 1286.77 298.217Z"/>
	<path fill="#1E1C2A" transform="scale(0.673077 0.672852)" d="M1309.77 328.442C1312.05 327.995 1313.82 328.362 1316.01 329C1346.81 337.988 1377.25 351.259 1407.35 362.402L1452.05 378.903C1461.62 382.425 1471.42 385.537 1480.55 390.128L1480.35 390.707L1482.51 391.293C1484.78 400.164 1483.25 413.199 1483.24 422.446L1482.82 494.245L1482.34 721.307C1482.34 734.49 1483.62 822.964 1481.45 827.375C1480.56 829.193 1478.94 829.398 1477.19 830.099C1470.56 829.282 1462.52 825.164 1456.16 822.85Q1435.05 815.327 1414.04 807.554L1351.09 784.393C1336.43 779.049 1321.21 774.304 1307.33 767.161C1306.67 765.577 1306.88 763.566 1306.84 761.861C1305.81 716.828 1306.74 671.42 1306.87 626.361L1306.53 481.352L1306.44 387.458C1306.36 370.088 1305.34 352.1 1306.55 334.785C1306.75 331.879 1307.86 330.445 1309.77 328.442Z"/>
	<path fill="#FDFDFD" transform="scale(0.673077 0.672852)" d="M1318.14 342.665C1323.74 343.299 1464.18 394.918 1469.42 397.956C1469.49 398.096 1469.55 398.236 1469.62 398.375C1470.96 400.981 1470.89 403.468 1470.95 406.315C1471.56 433.344 1470.94 460.521 1470.88 487.563L1470.64 639.877L1470.63 748.751C1470.62 768.364 1471.3 788.26 1470.29 807.831C1470.15 810.586 1470.2 812.874 1468.2 814.973C1438.7 804.68 1409.02 793.998 1379.88 782.738C1363.81 776.528 1333.15 763.142 1317.6 760.13C1318.57 756.956 1318.51 753.526 1318.54 750.237L1318.51 455.375L1318.67 377.701C1318.7 366.905 1320.29 353.119 1318.14 342.665Z"/>
	<path fill="#1E1C2A" transform="scale(0.673077 0.672852)" d="M1404.03 615.554C1406.96 615.086 1409.52 614.908 1412.37 615.939C1416.34 617.373 1419.95 621.166 1421.53 625.04C1422.73 627.989 1422.93 631.285 1421.52 634.215C1419.91 637.571 1417.43 638.934 1414.07 639.995C1412.83 640.4 1411.91 640.526 1410.61 640.392C1406.71 639.99 1403.94 638.954 1401.4 635.797C1399.07 632.899 1397.67 627.838 1398.17 624.138C1398.75 619.839 1400.85 618.087 1404.03 615.554Z"/>
	<path fill="#1565C0" transform="scale(0.673077 0.672852)" d="M1406.54 621.776C1407.11 621.739 1407.25 621.711 1407.78 621.735C1410.15 621.841 1412.65 622.644 1414.16 624.589C1415.73 626.604 1415.69 627.752 1415.55 630.133C1414 632.554 1413.57 632.916 1411 634.225C1410.1 634.22 1408.92 633.812 1408.14 633.378C1406.52 632.475 1405.17 630.904 1404.68 629.1C1403.8 625.818 1404.9 624.343 1406.54 621.776Z"/>
	<path fill="#1E1C2A" transform="scale(0.673077 0.672852)" d="M1365.67 600.443C1369.16 599.883 1372 599.459 1375.34 600.951C1379.61 602.858 1383.24 606.59 1384.81 611.022C1385.87 614.009 1385.83 617.25 1384.35 620.093C1382.59 623.484 1380.22 624.945 1376.73 626.006C1375.81 626.549 1374.62 626.718 1373.56 626.736C1370.17 626.791 1367.15 625.526 1364.76 623.112C1361.59 619.899 1359.77 614.849 1359.92 610.355C1360.09 605.655 1362.4 603.379 1365.67 600.443Z"/>
	<path fill="#1565C0" transform="scale(0.673077 0.672852)" d="M1367.62 606.664C1370.55 606.18 1372.87 606.562 1375.26 608.429C1377.7 610.342 1377.96 611.776 1378.29 614.652C1377.15 617.119 1376.64 617.513 1374.41 619.113C1374.33 619.202 1374.26 619.308 1374.16 619.379C1372.87 620.282 1371.86 620.199 1370.38 620.089C1369.71 619.531 1369.03 618.921 1368.55 618.188C1366.08 614.401 1366.51 610.723 1367.62 606.664Z"/>
	<path fill="#1E1C2A" transform="scale(0.673077 0.672852)" d="M1388.44 699.11C1395.56 698.541 1401.57 700.208 1407.43 704.347C1415.72 710.206 1421.96 720.176 1423.55 730.205C1424.52 736.293 1423.7 742.895 1419.92 747.926C1415.79 753.404 1409.93 755.356 1403.41 756.322C1399.1 756.748 1394.77 755.399 1390.94 753.519C1382.1 749.181 1375.26 740.732 1372.24 731.419C1370.02 724.561 1369.96 716.98 1373.43 710.514C1376.79 704.244 1381.79 701.12 1388.44 699.11Z"/>
	<path fill="#1565C0" transform="scale(0.673077 0.672852)" d="M1386.51 706.221C1391.22 705.509 1394.76 705.305 1399.19 707.358C1407 710.978 1413.33 718.646 1416.1 726.72C1417.78 731.607 1418.37 737.027 1415.9 741.759C1413.72 745.928 1410.43 747.759 1406.09 749.086C1404.25 749.531 1402.18 749.706 1400.3 749.477C1393.39 748.635 1387.41 744.595 1383.24 739.152C1378.88 733.451 1376.4 726.456 1377.45 719.255C1378.36 713.026 1381.63 709.808 1386.51 706.221Z"/>
	<path fill="#1E1C2A" transform="scale(0.673077 0.672852)" d="M1324.6 491.107C1325.21 490.985 1325.78 490.908 1326.39 490.812C1327.81 490.586 1328.79 490.548 1330.2 490.982C1356 498.905 1381.57 509.422 1406.99 518.587C1424.23 524.801 1448.58 531.648 1463.92 540.055C1465.52 542.933 1465.97 585.002 1464.97 589.251C1464.33 591.946 1463.5 592.31 1461.25 593.64L1460.07 594.329C1454.67 594.642 1413.8 578.187 1404.83 575.128C1395.07 571.797 1326.76 548.115 1324.64 543.345C1322.04 537.487 1322.05 497.477 1324.6 491.107Z"/>
	<path fill="#FDFDFD" transform="scale(0.673077 0.672852)" d="M1334.27 505.33C1339.23 505.259 1448.08 544.063 1451.97 547.168C1452.3 547.944 1452.6 548.746 1452.76 549.576C1454.02 555.937 1454.6 575.076 1451.36 580.137C1445.84 576.164 1423.37 569.666 1415.75 566.904C1388.58 557.061 1361.5 546.138 1333.98 537.398C1336.22 533.117 1335.39 510.654 1334.27 505.33Z"/>
	<path fill="#1E1C2A" transform="scale(0.673077 0.672852)" d="M1325.68 354.219C1325.87 354.18 1326.06 354.133 1326.25 354.102C1328.92 353.673 1331.14 354.388 1333.66 355.202C1350.99 360.796 1367.87 368.116 1384.96 374.439C1399.52 379.825 1455.92 398.068 1463.82 404.148C1465.71 408.155 1466.57 449.493 1464.99 454.204C1464.09 456.908 1462.94 457.079 1460.51 458.224C1460.04 458.498 1459.34 458.514 1458.79 458.474C1455.4 458.223 1344.68 417.177 1333.03 412.561C1330.25 411.462 1326.28 410.183 1324.37 407.879C1322.94 399.408 1322.38 360.682 1325.68 354.219Z"/>
	<path fill="#FDFDFD" transform="scale(0.673077 0.672852)" d="M1333.93 368.441C1335.19 368.222 1336.25 368.217 1337.47 368.591C1353.24 373.432 1368.79 380.38 1384.39 385.911Q1407.63 394.016 1430.72 402.531C1437.62 405.069 1445.47 407.261 1451.92 410.708C1452.26 411.334 1452.54 411.965 1452.78 412.636C1454.53 417.572 1454.05 440.355 1451.86 444.889C1433.78 435.929 1413.3 429.775 1394.36 422.831C1374.6 415.589 1354.17 406.834 1333.82 401.544C1333.89 401.406 1333.98 401.272 1334.05 401.131C1336.51 396.22 1335.61 373.634 1333.93 368.441Z"/>
	<path fill="#1E1C2A" transform="scale(0.673077 0.672852)" d="M1325.59 422.664C1326.39 422.523 1327.19 422.393 1328 422.322C1329.52 422.189 1330.93 422.359 1332.38 422.839C1345.89 427.314 1459.65 467.79 1463.23 470.844C1463.53 471.289 1463.62 471.395 1463.89 471.925C1466.19 476.441 1465.89 518.683 1464.18 523.149C1463.3 525.418 1462.4 525.453 1460.29 526.479C1459.67 526.58 1459.06 526.794 1458.44 526.783C1457.9 526.773 1336.21 482.916 1329.87 479.658C1327.35 478.366 1324.71 476.971 1323.88 474.106C1322.17 468.182 1322.77 434.783 1323.66 427.694C1323.89 425.855 1324.66 424.247 1325.59 422.664Z"/>
	<path fill="#FDFDFD" transform="scale(0.673077 0.672852)" d="M1334.32 435.998C1339.24 436.235 1441.3 473.3 1451.94 478.04C1452.45 479.101 1452.87 480.173 1453.03 481.346C1453.87 487.281 1454.69 507.788 1451.07 512.306C1430.77 503.07 1408.58 496.391 1387.56 488.842C1369.8 482.464 1351.82 474.711 1333.64 469.763C1336.17 465.473 1335.56 441.608 1334.32 435.998Z"/>
	<path fill="#90caf9" transform="scale(0.673077 0.672852)" d="M1724.6 275.999C1725.72 275.983 1726.52 276.137 1727.62 276.344C1727.81 276.813 1727.87 276.929 1728.02 277.467C1729.33 281.96 1728.31 348.236 1728.31 359.449L1728.29 644.576C1728.31 658.218 1730.18 752.388 1726.95 758.376C1725.26 759.886 1527.66 852.122 1514.36 856.447L1512.89 856.699C1510.39 852.218 1512.42 502.204 1512.47 454.43C1512.48 443.112 1514.22 380.778 1511.35 374.969C1522.68 372.028 1723.77 276.743 1724.6 275.999Z"/>
	<path fill="#1E1C2A" transform="scale(0.673077 0.672852)" d="M1681.88 706.221C1685.1 706.148 1686.22 705.935 1689.05 707.671C1688.93 707.986 1688.83 708.31 1688.68 708.617C1687.74 710.664 1684.96 712.174 1683.05 713.2C1657.54 726.934 1629.89 738.096 1603.51 750.173C1589.28 756.688 1574.66 765.226 1559.9 770.224L1558.13 770.8C1556.26 770.165 1556.13 769.977 1554.97 768.503C1555.56 766.582 1556.21 765.817 1557.95 764.69C1564.21 760.625 1571.84 758.407 1578.54 755.13Q1614.88 737.434 1651.8 720.978C1660.51 717.023 1674.76 712.142 1681.88 706.221Z"/>
	<path fill="#1E1C2A" transform="scale(0.673077 0.672852)" d="M1682.03 722.221C1682.4 722.135 1682.73 722.045 1683.1 722.001C1685.25 721.746 1686.79 721.883 1688.46 723.195L1688.26 724.829C1686.72 726.985 1684.72 728.408 1682.44 729.696C1669.23 737.162 1653.97 742.789 1640.15 749.163C1613.15 761.614 1586.24 774.461 1558.93 786.223L1556.96 786.827L1555.44 785.571L1555.3 783.176C1556.19 780.992 1557.85 780.076 1559.81 778.971C1569.84 773.319 1581.18 769.086 1591.7 764.293L1657.64 734.163C1664.83 730.868 1676.23 727.331 1682.03 722.221Z"/>
	<path fill="#1E1C2A" transform="scale(0.673077 0.672852)" d="M1681.17 737.332C1681.48 737.247 1681.79 737.158 1682.1 737.077C1684.89 736.354 1686.04 737.097 1688.35 738.518L1688.37 740.269C1683.98 745.313 1572.41 796.475 1559.95 801.363L1558.2 802.381C1556.12 801.839 1556.13 801.901 1555.01 800.074C1555.69 797.312 1556.55 796.587 1559.02 795.06C1569.26 788.718 1581.57 784.443 1592.52 779.412L1659.61 748.139C1665.89 745.188 1676.04 741.848 1681.17 737.332Z"/>
</svg>
