<?xml version='1.0' encoding='UTF-8'?>
<svg width="160mm" height="160mm" version="1.1" viewBox="0 0 160 160" xmlns="http://www.w3.org/2000/svg">
    <path d="M 121.6 0 L 121.6 6.4 L 128.0 6.4 L 128.0 0 z M 121.6 57.6 L 121.6 64.0 L 128.0 64.0 L 128.0 57.6 z M 0 32 L 0 38.4 L 6.4 38.4 L 6.4 32 z M 0 89.6 L 0 96.0 L 6.4 96.0 L 6.4 89.6 z M 0 147.2 L 0 153.6 L 6.4 153.6 L 6.4 147.2 z M 70.4 147.2 L 70.4 153.6 L 76.8 153.6 L 76.8 147.2 z M 25.6 12.8 L 25.6 19.2 L 32.0 19.2 L 32.0 12.8 z M 19.2 38.4 L 19.2 44.8 L 25.6 44.8 L 25.6 38.4 z M 19.2 96 L 19.2 102.4 L 25.6 102.4 L 25.6 96 z M 19.2 153.6 L 19.2 160.0 L 25.6 160.0 L 25.6 153.6 z M 115.2 19.2 L 115.2 25.6 L 121.6 25.6 L 121.6 19.2 z M 115.2 76.8 L 115.2 83.2 L 121.6 83.2 L 121.6 76.8 z M 115.2 134.4 L 115.2 140.8 L 121.6 140.8 L 121.6 134.4 z M 51.2 25.6 L 51.2 32.0 L 57.6 32.0 L 57.6 25.6 z M 0 0 L 0 6.4 L 6.4 6.4 L 6.4 0 z M 70.4 0 L 70.4 6.4 L 76.8 6.4 L 76.8 0 z M 64 140.8 L 64 147.2 L 70.4 147.2 L 70.4 140.8 z M 89.6 6.4 L 89.6 12.8 L 96.0 12.8 L 96.0 6.4 z M 140.8 89.6 L 140.8 96.0 L 147.2 96.0 L 147.2 89.6 z M 89.6 64 L 89.6 70.4 L 96.0 70.4 L 96.0 64 z M 140.8 147.2 L 140.8 153.6 L 147.2 153.6 L 147.2 147.2 z M 96 70.4 L 96 76.8 L 102.4 76.8 L 102.4 70.4 z M 44.8 102.4 L 44.8 108.8 L 51.2 108.8 L 51.2 102.4 z M 115.2 102.4 L 115.2 108.8 L 121.6 108.8 L 121.6 102.4 z M 70.4 25.6 L 70.4 32.0 L 76.8 32.0 L 76.8 25.6 z M 12.8 140.8 L 12.8 147.2 L 19.2 147.2 L 19.2 140.8 z M 140.8 0 L 140.8 6.4 L 147.2 6.4 L 147.2 0 z M 140.8 57.6 L 140.8 64.0 L 147.2 64.0 L 147.2 57.6 z M 89.6 32 L 89.6 38.4 L 96.0 38.4 L 96.0 32 z M 19.2 89.6 L 19.2 96.0 L 25.6 96.0 L 25.6 89.6 z M 89.6 89.6 L 89.6 96.0 L 96.0 96.0 L 96.0 89.6 z M 89.6 147.2 L 89.6 153.6 L 96.0 153.6 L 96.0 147.2 z M 115.2 12.8 L 115.2 19.2 L 121.6 19.2 L 121.6 12.8 z M 38.4 153.6 L 38.4 160.0 L 44.8 160.0 L 44.8 153.6 z M 134.4 140.8 L 134.4 147.2 L 140.8 147.2 L 140.8 140.8 z M 64 76.8 L 64 83.2 L 70.4 83.2 L 70.4 76.8 z M 64 134.4 L 64 140.8 L 70.4 140.8 L 70.4 134.4 z M 140.8 25.6 L 140.8 32.0 L 147.2 32.0 L 147.2 25.6 z M 19.2 0 L 19.2 6.4 L 25.6 6.4 L 25.6 0 z M 89.6 0 L 89.6 6.4 L 96.0 6.4 L 96.0 0 z M 19.2 57.6 L 19.2 64.0 L 25.6 64.0 L 25.6 57.6 z M 89.6 57.6 L 89.6 64.0 L 96.0 64.0 L 96.0 57.6 z M 19.2 115.2 L 19.2 121.6 L 25.6 121.6 L 25.6 115.2 z M 89.6 115.2 L 89.6 121.6 L 96.0 121.6 L 96.0 115.2 z M 108.8 128 L 108.8 134.4 L 115.2 134.4 L 115.2 128 z M 38.4 64 L 38.4 70.4 L 44.8 70.4 L 44.8 64 z M 134.4 51.2 L 134.4 57.6 L 140.8 57.6 L 140.8 51.2 z M 38.4 121.6 L 38.4 128.0 L 44.8 128.0 L 44.8 121.6 z M 64 44.8 L 64 51.2 L 70.4 51.2 L 70.4 44.8 z M 12.8 19.2 L 12.8 25.6 L 19.2 25.6 L 19.2 19.2 z M 12.8 134.4 L 12.8 140.8 L 19.2 140.8 L 19.2 134.4 z M 19.2 25.6 L 19.2 32.0 L 25.6 32.0 L 25.6 25.6 z M 108.8 153.6 L 108.8 160.0 L 115.2 160.0 L 115.2 153.6 z M 38.4 32 L 38.4 38.4 L 44.8 38.4 L 44.8 32 z M 134.4 19.2 L 134.4 25.6 L 140.8 25.6 L 140.8 19.2 z M 38.4 89.6 L 38.4 96.0 L 44.8 96.0 L 44.8 89.6 z M 38.4 147.2 L 38.4 153.6 L 44.8 153.6 L 44.8 147.2 z M 64 12.8 L 64 19.2 L 70.4 19.2 L 70.4 12.8 z M 64 70.4 L 64 76.8 L 70.4 76.8 L 70.4 70.4 z M 12.8 102.4 L 12.8 108.8 L 19.2 108.8 L 19.2 102.4 z M 83.2 83.2 L 83.2 89.6 L 89.6 89.6 L 89.6 83.2 z M 83.2 140.8 L 83.2 147.2 L 89.6 147.2 L 89.6 140.8 z M 153.6 140.8 L 153.6 147.2 L 160.0 147.2 L 160.0 140.8 z M 102.4 115.2 L 102.4 121.6 L 108.8 121.6 L 108.8 115.2 z M 32 51.2 L 32 57.6 L 38.4 57.6 L 38.4 51.2 z M 108.8 64 L 108.8 70.4 L 115.2 70.4 L 115.2 64 z M 57.6 153.6 L 57.6 160.0 L 64.0 160.0 L 64.0 153.6 z M 38.4 0 L 38.4 6.4 L 44.8 6.4 L 44.8 0 z M 38.4 115.2 L 38.4 121.6 L 44.8 121.6 L 44.8 115.2 z M 128 128 L 128 134.4 L 134.4 134.4 L 134.4 128 z M 64 38.4 L 64 44.8 L 70.4 44.8 L 70.4 38.4 z M 12.8 12.8 L 12.8 19.2 L 19.2 19.2 L 19.2 12.8 z M 12.8 70.4 L 12.8 76.8 L 19.2 76.8 L 19.2 70.4 z M 83.2 51.2 L 83.2 57.6 L 89.6 57.6 L 89.6 51.2 z M 102.4 83.2 L 102.4 89.6 L 108.8 89.6 L 108.8 83.2 z M 6.4 153.6 L 6.4 160.0 L 12.8 160.0 L 12.8 153.6 z M 102.4 140.8 L 102.4 147.2 L 108.8 147.2 L 108.8 140.8 z M 108.8 89.6 L 108.8 96.0 L 115.2 96.0 L 115.2 89.6 z M 108.8 147.2 L 108.8 153.6 L 115.2 153.6 L 115.2 147.2 z M 38.4 25.6 L 38.4 32.0 L 44.8 32.0 L 44.8 25.6 z M 134.4 12.8 L 134.4 19.2 L 140.8 19.2 L 140.8 12.8 z M 76.8 128 L 76.8 134.4 L 83.2 134.4 L 83.2 128 z M 153.6 19.2 L 153.6 25.6 L 160.0 25.6 L 160.0 19.2 z M 6.4 64 L 6.4 70.4 L 12.8 70.4 L 12.8 64 z M 83.2 76.8 L 83.2 83.2 L 89.6 83.2 L 89.6 76.8 z M 153.6 76.8 L 153.6 83.2 L 160.0 83.2 L 160.0 76.8 z M 102.4 51.2 L 102.4 57.6 L 108.8 57.6 L 108.8 51.2 z M 153.6 134.4 L 153.6 140.8 L 160.0 140.8 L 160.0 134.4 z M 102.4 108.8 L 102.4 115.2 L 108.8 115.2 L 108.8 108.8 z M 57.6 32 L 57.6 38.4 L 64.0 38.4 L 64.0 32 z M 128 64 L 128 70.4 L 134.4 70.4 L 134.4 64 z M 76.8 38.4 L 76.8 44.8 L 83.2 44.8 L 83.2 38.4 z M 147.2 38.4 L 147.2 44.8 L 153.6 44.8 L 153.6 38.4 z M 128 121.6 L 128 128.0 L 134.4 128.0 L 134.4 121.6 z M 76.8 96 L 76.8 102.4 L 83.2 102.4 L 83.2 96 z M 25.6 70.4 L 25.6 76.8 L 32.0 76.8 L 32.0 70.4 z M 25.6 128 L 25.6 134.4 L 32.0 134.4 L 32.0 128 z M 102.4 19.2 L 102.4 25.6 L 108.8 25.6 L 108.8 19.2 z M 6.4 89.6 L 6.4 96.0 L 12.8 96.0 L 12.8 89.6 z M 83.2 102.4 L 83.2 108.8 L 89.6 108.8 L 89.6 102.4 z M 102.4 76.8 L 102.4 83.2 L 108.8 83.2 L 108.8 76.8 z M 102.4 134.4 L 102.4 140.8 L 108.8 140.8 L 108.8 134.4 z M 57.6 57.6 L 57.6 64.0 L 64.0 64.0 L 64.0 57.6 z M 51.2 83.2 L 51.2 89.6 L 57.6 89.6 L 57.6 83.2 z M 0 115.2 L 0 121.6 L 6.4 121.6 L 6.4 115.2 z M 76.8 6.4 L 76.8 12.8 L 83.2 12.8 L 83.2 6.4 z M 128 89.6 L 128 96.0 L 134.4 96.0 L 134.4 89.6 z M 76.8 64 L 76.8 70.4 L 83.2 70.4 L 83.2 64 z M 128 147.2 L 128 153.6 L 134.4 153.6 L 134.4 147.2 z M 25.6 38.4 L 25.6 44.8 L 32.0 44.8 L 32.0 38.4 z M 25.6 153.6 L 25.6 160.0 L 32.0 160.0 L 32.0 153.6 z M 6.4 0 L 6.4 6.4 L 12.8 6.4 L 12.8 0 z M 83.2 12.8 L 83.2 19.2 L 89.6 19.2 L 89.6 12.8 z M 153.6 12.8 L 153.6 19.2 L 160.0 19.2 L 160.0 12.8 z M 153.6 70.4 L 153.6 76.8 L 160.0 76.8 L 160.0 70.4 z M 6.4 115.2 L 6.4 121.6 L 12.8 121.6 L 12.8 115.2 z M 102.4 102.4 L 102.4 108.8 L 108.8 108.8 L 108.8 102.4 z M 96 128 L 96 134.4 L 102.4 134.4 L 102.4 128 z M 32 38.4 L 32 44.8 L 38.4 44.8 L 38.4 38.4 z M 51.2 51.2 L 51.2 57.6 L 57.6 57.6 L 57.6 51.2 z M 0 25.6 L 0 32.0 L 6.4 32.0 L 6.4 25.6 z M 51.2 108.8 L 51.2 115.2 L 57.6 115.2 L 57.6 108.8 z M 0 83.2 L 0 89.6 L 6.4 89.6 L 6.4 83.2 z M 0 140.8 L 0 147.2 L 6.4 147.2 L 6.4 140.8 z M 128 0 L 128 6.4 L 134.4 6.4 L 134.4 0 z M 128 57.6 L 128 64.0 L 134.4 64.0 L 134.4 57.6 z M 128 115.2 L 128 121.6 L 134.4 121.6 L 134.4 115.2 z M 147.2 89.6 L 147.2 96.0 L 153.6 96.0 L 153.6 89.6 z M 25.6 64 L 25.6 70.4 L 32.0 70.4 L 32.0 64 z M 147.2 147.2 L 147.2 153.6 L 153.6 153.6 L 153.6 147.2 z M 153.6 38.4 L 153.6 44.8 L 160.0 44.8 L 160.0 38.4 z M 6.4 83.2 L 6.4 89.6 L 12.8 89.6 L 12.8 83.2 z M 96 96 L 96 102.4 L 102.4 102.4 L 102.4 96 z M 115.2 128 L 115.2 134.4 L 121.6 134.4 L 121.6 128 z M 51.2 19.2 L 51.2 25.6 L 57.6 25.6 L 57.6 19.2 z M 51.2 76.8 L 51.2 83.2 L 57.6 83.2 L 57.6 76.8 z M 121.6 76.8 L 121.6 83.2 L 128.0 83.2 L 128.0 76.8 z M 70.4 51.2 L 70.4 57.6 L 76.8 57.6 L 76.8 51.2 z M 51.2 134.4 L 51.2 140.8 L 57.6 140.8 L 57.6 134.4 z M 128 25.6 L 128 32.0 L 134.4 32.0 L 134.4 25.6 z M 147.2 0 L 147.2 6.4 L 153.6 6.4 L 153.6 0 z M 128 83.2 L 128 89.6 L 134.4 89.6 L 134.4 83.2 z M 147.2 57.6 L 147.2 64.0 L 153.6 64.0 L 153.6 57.6 z M 25.6 89.6 L 25.6 96.0 L 32.0 96.0 L 32.0 89.6 z M 140.8 140.8 L 140.8 147.2 L 147.2 147.2 L 147.2 140.8 z M 96 6.4 L 96 12.8 L 102.4 12.8 L 102.4 6.4 z M 96 64 L 96 70.4 L 102.4 70.4 L 102.4 64 z M 115.2 38.4 L 115.2 44.8 L 121.6 44.8 L 121.6 38.4 z M 44.8 96 L 44.8 102.4 L 51.2 102.4 L 51.2 96 z M 115.2 96 L 115.2 102.4 L 121.6 102.4 L 121.6 96 z M 51.2 44.8 L 51.2 51.2 L 57.6 51.2 L 57.6 44.8 z M 0 19.2 L 0 25.6 L 6.4 25.6 L 6.4 19.2 z M 70.4 19.2 L 70.4 25.6 L 76.8 25.6 L 76.8 19.2 z M 121.6 102.4 L 121.6 108.8 L 128.0 108.8 L 128.0 102.4 z M 0 76.8 L 0 83.2 L 6.4 83.2 L 6.4 76.8 z M 0 134.4 L 0 140.8 L 6.4 140.8 L 6.4 134.4 z M 70.4 134.4 L 70.4 140.8 L 76.8 140.8 L 76.8 134.4 z M 25.6 0 L 25.6 6.4 L 32.0 6.4 L 32.0 0 z M 140.8 108.8 L 140.8 115.2 L 147.2 115.2 L 147.2 108.8 z M 19.2 83.2 L 19.2 89.6 L 25.6 89.6 L 25.6 83.2 z M 19.2 140.8 L 19.2 147.2 L 25.6 147.2 L 25.6 140.8 z M 115.2 6.4 L 115.2 12.8 L 121.6 12.8 L 121.6 6.4 z M 96 89.6 L 96 96.0 L 102.4 96.0 L 102.4 89.6 z M 44.8 64 L 44.8 70.4 L 51.2 70.4 L 51.2 64 z M 115.2 64 L 115.2 70.4 L 121.6 70.4 L 121.6 64 z M 51.2 70.4 L 51.2 76.8 L 57.6 76.8 L 57.6 70.4 z M 70.4 44.8 L 70.4 51.2 L 76.8 51.2 L 76.8 44.8 z M 0 102.4 L 0 108.8 L 6.4 108.8 L 6.4 102.4 z M 70.4 102.4 L 70.4 108.8 L 76.8 108.8 L 76.8 102.4 z M 64 128 L 64 134.4 L 70.4 134.4 L 70.4 128 z M 140.8 19.2 L 140.8 25.6 L 147.2 25.6 L 147.2 19.2 z M 19.2 51.2 L 19.2 57.6 L 25.6 57.6 L 25.6 51.2 z M 89.6 51.2 L 89.6 57.6 L 96.0 57.6 L 96.0 51.2 z M 96 0 L 96 6.4 L 102.4 6.4 L 102.4 0 z M 96 57.6 L 96 64.0 L 102.4 64.0 L 102.4 57.6 z M 115.2 32 L 115.2 38.4 L 121.6 38.4 L 121.6 32 z M 115.2 89.6 L 115.2 96.0 L 121.6 96.0 L 121.6 89.6 z M 115.2 147.2 L 115.2 153.6 L 121.6 153.6 L 121.6 147.2 z M 121.6 38.4 L 121.6 44.8 L 128.0 44.8 L 128.0 38.4 z M 0 12.8 L 0 19.2 L 6.4 19.2 L 6.4 12.8 z M 64 96 L 64 102.4 L 70.4 102.4 L 70.4 96 z M 64 153.6 L 64 160.0 L 70.4 160.0 L 70.4 153.6 z M 12.8 128 L 12.8 134.4 L 19.2 134.4 L 19.2 128 z M 19.2 19.2 L 19.2 25.6 L 25.6 25.6 L 25.6 19.2 z M 89.6 19.2 L 89.6 25.6 L 96.0 25.6 L 96.0 19.2 z M 140.8 102.4 L 140.8 108.8 L 147.2 108.8 L 147.2 102.4 z M 89.6 76.8 L 89.6 83.2 L 96.0 83.2 L 96.0 76.8 z M 19.2 134.4 L 19.2 140.8 L 25.6 140.8 L 25.6 134.4 z M 89.6 134.4 L 89.6 140.8 L 96.0 140.8 L 96.0 134.4 z M 96 25.6 L 96 32.0 L 102.4 32.0 L 102.4 25.6 z M 115.2 0 L 115.2 6.4 L 121.6 6.4 L 121.6 0 z M 96 83.2 L 96 89.6 L 102.4 89.6 L 102.4 83.2 z M 115.2 115.2 L 115.2 121.6 L 121.6 121.6 L 121.6 115.2 z M 134.4 70.4 L 134.4 76.8 L 140.8 76.8 L 140.8 70.4 z M 38.4 140.8 L 38.4 147.2 L 44.8 147.2 L 44.8 140.8 z M 64 64 L 64 70.4 L 70.4 70.4 L 70.4 64 z M 12.8 38.4 L 12.8 44.8 L 19.2 44.8 L 19.2 38.4 z M 12.8 153.6 L 12.8 160.0 L 19.2 160.0 L 19.2 153.6 z M 140.8 12.8 L 140.8 19.2 L 147.2 19.2 L 147.2 12.8 z M 140.8 70.4 L 140.8 76.8 L 147.2 76.8 L 147.2 70.4 z M 89.6 44.8 L 89.6 51.2 L 96.0 51.2 L 96.0 44.8 z M 89.6 102.4 L 89.6 108.8 L 96.0 108.8 L 96.0 102.4 z M 115.2 25.6 L 115.2 32.0 L 121.6 32.0 L 121.6 25.6 z M 57.6 147.2 L 57.6 153.6 L 64.0 153.6 L 64.0 147.2 z M 38.4 51.2 L 38.4 57.6 L 44.8 57.6 L 44.8 51.2 z M 134.4 38.4 L 134.4 44.8 L 140.8 44.8 L 140.8 38.4 z M 134.4 96 L 134.4 102.4 L 140.8 102.4 L 140.8 96 z M 134.4 153.6 L 134.4 160.0 L 140.8 160.0 L 140.8 153.6 z M 64 147.2 L 64 153.6 L 70.4 153.6 L 70.4 147.2 z M 140.8 38.4 L 140.8 44.8 L 147.2 44.8 L 147.2 38.4 z M 19.2 12.8 L 19.2 19.2 L 25.6 19.2 L 25.6 12.8 z M 89.6 12.8 L 89.6 19.2 L 96.0 19.2 L 96.0 12.8 z M 89.6 70.4 L 89.6 76.8 L 96.0 76.8 L 96.0 70.4 z M 108.8 83.2 L 108.8 89.6 L 115.2 89.6 L 115.2 83.2 z M 38.4 19.2 L 38.4 25.6 L 44.8 25.6 L 44.8 19.2 z M 38.4 76.8 L 38.4 83.2 L 44.8 83.2 L 44.8 76.8 z M 134.4 64 L 134.4 70.4 L 140.8 70.4 L 140.8 64 z M 38.4 134.4 L 38.4 140.8 L 44.8 140.8 L 44.8 134.4 z M 83.2 128 L 83.2 134.4 L 89.6 134.4 L 89.6 128 z M 153.6 128 L 153.6 134.4 L 160.0 134.4 L 160.0 128 z M 89.6 38.4 L 89.6 44.8 L 96.0 44.8 L 96.0 38.4 z M 108.8 51.2 L 108.8 57.6 L 115.2 57.6 L 115.2 51.2 z M 32 96 L 32 102.4 L 38.4 102.4 L 38.4 96 z M 32 153.6 L 32 160.0 L 38.4 160.0 L 38.4 153.6 z M 57.6 140.8 L 57.6 147.2 L 64.0 147.2 L 64.0 140.8 z M 38.4 102.4 L 38.4 108.8 L 44.8 108.8 L 44.8 102.4 z M 134.4 89.6 L 134.4 96.0 L 140.8 96.0 L 140.8 89.6 z M 12.8 0 L 12.8 6.4 L 19.2 6.4 L 19.2 0 z M 12.8 57.6 L 12.8 64.0 L 19.2 64.0 L 19.2 57.6 z M 12.8 115.2 L 12.8 121.6 L 19.2 121.6 L 19.2 115.2 z M 153.6 96 L 153.6 102.4 L 160.0 102.4 L 160.0 96 z M 102.4 70.4 L 102.4 76.8 L 108.8 76.8 L 108.8 70.4 z M 83.2 153.6 L 83.2 160.0 L 89.6 160.0 L 89.6 153.6 z M 153.6 153.6 L 153.6 160.0 L 160.0 160.0 L 160.0 153.6 z M 102.4 128 L 102.4 134.4 L 108.8 134.4 L 108.8 128 z M 32 64 L 32 70.4 L 38.4 70.4 L 38.4 64 z M 57.6 51.2 L 57.6 57.6 L 64.0 57.6 L 64.0 51.2 z M 108.8 134.4 L 108.8 140.8 L 115.2 140.8 L 115.2 134.4 z M 38.4 12.8 L 38.4 19.2 L 44.8 19.2 L 44.8 12.8 z M 134.4 0 L 134.4 6.4 L 140.8 6.4 L 140.8 0 z M 134.4 57.6 L 134.4 64.0 L 140.8 64.0 L 140.8 57.6 z M 38.4 128 L 38.4 134.4 L 44.8 134.4 L 44.8 128 z M 128 140.8 L 128 147.2 L 134.4 147.2 L 134.4 140.8 z M 12.8 25.6 L 12.8 32.0 L 19.2 32.0 L 19.2 25.6 z M 83.2 6.4 L 83.2 12.8 L 89.6 12.8 L 89.6 6.4 z M 153.6 6.4 L 153.6 12.8 L 160.0 12.8 L 160.0 6.4 z M 6.4 51.2 L 6.4 57.6 L 12.8 57.6 L 12.8 51.2 z M 153.6 64 L 153.6 70.4 L 160.0 70.4 L 160.0 64 z M 102.4 38.4 L 102.4 44.8 L 108.8 44.8 L 108.8 38.4 z M 83.2 121.6 L 83.2 128.0 L 89.6 128.0 L 89.6 121.6 z M 153.6 121.6 L 153.6 128.0 L 160.0 128.0 L 160.0 121.6 z M 102.4 153.6 L 102.4 160.0 L 108.8 160.0 L 108.8 153.6 z M 57.6 19.2 L 57.6 25.6 L 64.0 25.6 L 64.0 19.2 z M 32 89.6 L 32 96.0 L 38.4 96.0 L 38.4 89.6 z M 108.8 102.4 L 108.8 108.8 L 115.2 108.8 L 115.2 102.4 z M 38.4 38.4 L 38.4 44.8 L 44.8 44.8 L 44.8 38.4 z M 134.4 25.6 L 134.4 32.0 L 140.8 32.0 L 140.8 25.6 z M 128 51.2 L 128 57.6 L 134.4 57.6 L 134.4 51.2 z M 128 108.8 L 128 115.2 L 134.4 115.2 L 134.4 108.8 z M 147.2 83.2 L 147.2 89.6 L 153.6 89.6 L 153.6 83.2 z M 147.2 140.8 L 147.2 147.2 L 153.6 147.2 L 153.6 140.8 z M 25.6 115.2 L 25.6 121.6 L 32.0 121.6 L 32.0 115.2 z M 83.2 32 L 83.2 38.4 L 89.6 38.4 L 89.6 32 z M 153.6 32 L 153.6 38.4 L 160.0 38.4 L 160.0 32 z M 83.2 89.6 L 83.2 96.0 L 89.6 96.0 L 89.6 89.6 z M 153.6 89.6 L 153.6 96.0 L 160.0 96.0 L 160.0 89.6 z M 102.4 64 L 102.4 70.4 L 108.8 70.4 L 108.8 64 z M 153.6 147.2 L 153.6 153.6 L 160.0 153.6 L 160.0 147.2 z M 102.4 121.6 L 102.4 128.0 L 108.8 128.0 L 108.8 121.6 z M 32 0 L 32 6.4 L 38.4 6.4 L 38.4 0 z M 32 115.2 L 32 121.6 L 38.4 121.6 L 38.4 115.2 z M 57.6 102.4 L 57.6 108.8 L 64.0 108.8 L 64.0 102.4 z M 38.4 6.4 L 38.4 12.8 L 44.8 12.8 L 44.8 6.4 z M 51.2 128 L 51.2 134.4 L 57.6 134.4 L 57.6 128 z M 121.6 128 L 121.6 134.4 L 128.0 134.4 L 128.0 128 z M 128 19.2 L 128 25.6 L 134.4 25.6 L 134.4 19.2 z M 147.2 51.2 L 147.2 57.6 L 153.6 57.6 L 153.6 51.2 z M 25.6 25.6 L 25.6 32.0 L 32.0 32.0 L 32.0 25.6 z M 76.8 108.8 L 76.8 115.2 L 83.2 115.2 L 83.2 108.8 z M 147.2 108.8 L 147.2 115.2 L 153.6 115.2 L 153.6 108.8 z M 25.6 83.2 L 25.6 89.6 L 32.0 89.6 L 32.0 83.2 z M 25.6 140.8 L 25.6 147.2 L 32.0 147.2 L 32.0 140.8 z M 83.2 0 L 83.2 6.4 L 89.6 6.4 L 89.6 0 z M 153.6 0 L 153.6 6.4 L 160.0 6.4 L 160.0 0 z M 83.2 115.2 L 83.2 121.6 L 89.6 121.6 L 89.6 115.2 z M 153.6 115.2 L 153.6 121.6 L 160.0 121.6 L 160.0 115.2 z M 102.4 89.6 L 102.4 96.0 L 108.8 96.0 L 108.8 89.6 z M 57.6 12.8 L 57.6 19.2 L 64.0 19.2 L 64.0 12.8 z M 32 83.2 L 32 89.6 L 38.4 89.6 L 38.4 83.2 z M 51.2 38.4 L 51.2 44.8 L 57.6 44.8 L 57.6 38.4 z M 51.2 96 L 51.2 102.4 L 57.6 102.4 L 57.6 96 z M 121.6 96 L 121.6 102.4 L 128.0 102.4 L 128.0 96 z M 70.4 70.4 L 70.4 76.8 L 76.8 76.8 L 76.8 70.4 z M 0 128 L 0 134.4 L 6.4 134.4 L 6.4 128 z M 76.8 19.2 L 76.8 25.6 L 83.2 25.6 L 83.2 19.2 z M 128 102.4 L 128 108.8 L 134.4 108.8 L 134.4 102.4 z M 25.6 51.2 L 25.6 57.6 L 32.0 57.6 L 32.0 51.2 z M 147.2 134.4 L 147.2 140.8 L 153.6 140.8 L 153.6 134.4 z M 83.2 25.6 L 83.2 32.0 L 89.6 32.0 L 89.6 25.6 z M 153.6 25.6 L 153.6 32.0 L 160.0 32.0 L 160.0 25.6 z M 6.4 70.4 L 6.4 76.8 L 12.8 76.8 L 12.8 70.4 z M 51.2 6.4 L 51.2 12.8 L 57.6 12.8 L 57.6 6.4 z M 51.2 64 L 51.2 70.4 L 57.6 70.4 L 57.6 64 z M 121.6 64 L 121.6 70.4 L 128.0 70.4 L 128.0 64 z M 0 38.4 L 0 44.8 L 6.4 44.8 L 6.4 38.4 z M 51.2 121.6 L 51.2 128.0 L 57.6 128.0 L 57.6 121.6 z M 0 96 L 0 102.4 L 6.4 102.4 L 6.4 96 z M 0 153.6 L 0 160.0 L 6.4 160.0 L 6.4 153.6 z M 128 12.8 L 128 19.2 L 134.4 19.2 L 134.4 12.8 z M 128 70.4 L 128 76.8 L 134.4 76.8 L 134.4 70.4 z M 76.8 44.8 L 76.8 51.2 L 83.2 51.2 L 83.2 44.8 z M 25.6 19.2 L 25.6 25.6 L 32.0 25.6 L 32.0 19.2 z M 76.8 102.4 L 76.8 108.8 L 83.2 108.8 L 83.2 102.4 z M 147.2 102.4 L 147.2 108.8 L 153.6 108.8 L 153.6 102.4 z M 25.6 76.8 L 25.6 83.2 L 32.0 83.2 L 32.0 76.8 z M 25.6 134.4 L 25.6 140.8 L 32.0 140.8 L 32.0 134.4 z M 6.4 38.4 L 6.4 44.8 L 12.8 44.8 L 12.8 38.4 z M 96 51.2 L 96 57.6 L 102.4 57.6 L 102.4 51.2 z M 0 6.4 L 0 12.8 L 6.4 12.8 L 6.4 6.4 z M 70.4 6.4 L 70.4 12.8 L 76.8 12.8 L 76.8 6.4 z M 51.2 89.6 L 51.2 96.0 L 57.6 96.0 L 57.6 89.6 z M 0 64 L 0 70.4 L 6.4 70.4 L 6.4 64 z M 70.4 64 L 70.4 70.4 L 76.8 70.4 L 76.8 64 z M 51.2 147.2 L 51.2 153.6 L 57.6 153.6 L 57.6 147.2 z M 121.6 147.2 L 121.6 153.6 L 128.0 153.6 L 128.0 147.2 z M 0 121.6 L 0 128.0 L 6.4 128.0 L 6.4 121.6 z M 128 38.4 L 128 44.8 L 134.4 44.8 L 134.4 38.4 z M 76.8 70.4 L 76.8 76.8 L 83.2 76.8 L 83.2 70.4 z M 147.2 70.4 L 147.2 76.8 L 153.6 76.8 L 153.6 70.4 z M 140.8 96 L 140.8 102.4 L 147.2 102.4 L 147.2 96 z M 19.2 128 L 19.2 134.4 L 25.6 134.4 L 25.6 128 z M 96 19.2 L 96 25.6 L 102.4 25.6 L 102.4 19.2 z M 96 76.8 L 96 83.2 L 102.4 83.2 L 102.4 76.8 z M 115.2 51.2 L 115.2 57.6 L 121.6 57.6 L 121.6 51.2 z"
          id="qr-path" fill="#000000" fill-opacity="1" fill-rule="nonzero" stroke="none"/>
</svg>